<svg xmlns="http://www.w3.org/2000/svg" xmlns:xlink="http://www.w3.org/1999/xlink" width="590" height="259" viewBox="0 0 590 259">
    <defs>
        <path id="a" d="M7.358 164.354c34.363-8.552 87.186-46.215 111.164-63.274 1.846-1.314 1.033-3.358 1.033-3.358l.593-.296c.433-.31 5.294-15.2 3.128-36.312-1.418-13.822-7.022-21.95-8.671-23.843-.269-.307-.791-.162-.791-.162s-.034-1.397-2.703-2.398C76.713 21.814 51.534 13.465.787.1"/>
        <path id="c" d="M7.2 164.354c34.363-8.552 87.186-46.215 111.164-63.274 1.846-1.314 1.033-3.358 1.033-3.358l.593-.296c.434-.31 5.294-15.2 3.128-36.312-1.417-13.822-7.022-21.95-8.671-23.843-.269-.307-.791-.162-.791-.162s-.034-1.397-2.703-2.398C76.555 21.814 51.376 13.465.629.1"/>
        <path id="e" d="M7.2 164.984c34.363-8.552 87.186-46.215 111.164-63.273 1.846-1.315 1.033-3.359 1.033-3.359l.593-.296c.434-.31 5.294-15.2 3.128-36.312-1.417-13.822-7.022-21.95-8.671-23.843-.269-.307-.791-.162-.791-.162s-.034-1.397-2.703-2.398C76.555 22.444 51.376 14.095.629.73"/>
        <path id="g" d="M6.885 164.354c34.362-8.552 87.185-46.215 111.163-63.274 1.847-1.314 1.033-3.358 1.033-3.358l.593-.296c.434-.31 5.295-15.2 3.129-36.312-1.418-13.822-7.023-21.95-8.672-23.843-.268-.307-.79-.162-.79-.162s-.035-1.397-2.704-2.398C76.239 21.814 51.06 13.465.313.1"/>
        <path id="i" d="M7.358 164.354c34.363-8.552 87.186-46.215 111.164-63.274 1.846-1.314 1.033-3.358 1.033-3.358l.593-.296c.433-.31 5.294-15.2 3.128-36.312-1.418-13.822-7.022-21.95-8.671-23.843-.269-.307-.791-.162-.791-.162s-.034-1.397-2.703-2.398C76.713 21.814 51.534 13.465.787.1"/>
        <path id="k" d="M7.2 164.354c34.363-8.552 87.186-46.215 111.164-63.274 1.846-1.314 1.033-3.358 1.033-3.358l.593-.296c.434-.31 5.294-15.2 3.128-36.312-1.417-13.822-7.022-21.95-8.671-23.843-.269-.307-.791-.162-.791-.162s-.034-1.397-2.703-2.398C76.555 21.814 51.376 13.465.629.1"/>
        <path id="m" d="M7.2 164.354c34.363-8.552 87.186-46.215 111.164-63.274 1.846-1.314 1.033-3.358 1.033-3.358l.593-.296c.434-.31 5.294-15.2 3.128-36.312-1.417-13.822-7.022-21.95-8.671-23.843-.269-.307-.791-.162-.791-.162s-.034-1.397-2.703-2.398C76.555 21.814 51.376 13.465.629.1"/>
        <path id="o" d="M6.648 164.354c34.363-8.552 87.185-46.215 111.164-63.274 1.846-1.314 1.033-3.358 1.033-3.358l.592-.296c.434-.31 5.295-15.2 3.129-36.312-1.418-13.822-7.023-21.95-8.672-23.843-.268-.307-.79-.162-.79-.162s-.035-1.397-2.704-2.398C76.002 21.814 50.824 13.465.076.1"/>
        <path id="q" d="M6.727 164.354c34.363-8.552 87.185-46.215 111.164-63.274 1.846-1.314 1.033-3.358 1.033-3.358l.592-.296c.434-.31 5.295-15.2 3.129-36.312-1.418-13.822-7.023-21.95-8.672-23.843-.268-.307-.79-.162-.79-.162s-.035-1.397-2.704-2.398C76.081 21.814 50.903 13.465.155.1"/>
        <path id="s" d="M6.727 164.354c34.363-8.552 87.185-46.215 111.164-63.274 1.846-1.314 1.033-3.358 1.033-3.358l.592-.296c.434-.31 5.295-15.2 3.129-36.312-1.418-13.822-7.023-21.95-8.672-23.843-.268-.307-.79-.162-.79-.162s-.035-1.397-2.704-2.398C76.081 21.814 50.903 13.465.155.1"/>
        <path id="u" d="M7.2 164.354c34.363-8.552 87.186-46.215 111.164-63.274 1.846-1.314 1.033-3.358 1.033-3.358l.593-.296c.434-.31 5.294-15.2 3.128-36.312-1.417-13.822-7.022-21.95-8.671-23.843-.269-.307-.791-.162-.791-.162s-.034-1.397-2.703-2.398C76.555 21.814 51.376 13.465.629.1"/>
        <path id="w" d="M7.2 164.354c34.363-8.552 87.186-46.215 111.164-63.274 1.846-1.314 1.033-3.358 1.033-3.358l.593-.296c.434-.31 5.294-15.2 3.128-36.312-1.417-13.822-7.022-21.95-8.671-23.843-.269-.307-.791-.162-.791-.162s-.034-1.397-2.703-2.398C76.555 21.814 51.376 13.465.629.1"/>
        <path id="y" d="M7.2 164.354c34.363-8.552 87.186-46.215 111.164-63.274 1.846-1.314 1.033-3.358 1.033-3.358l.593-.296c.434-.31 5.294-15.2 3.128-36.312-1.417-13.822-7.022-21.95-8.671-23.843-.269-.307-.791-.162-.791-.162s-.034-1.397-2.703-2.398C76.555 21.814 51.376 13.465.629.1"/>
        <path id="A" d="M7.2 163.566c34.363-8.51 87.186-45.993 111.164-62.97 1.846-1.308 1.033-3.342 1.033-3.342l.593-.295c.434-.308 5.294-15.127 3.128-36.137-1.417-13.756-7.022-21.846-8.671-23.73-.269-.305-.791-.16-.791-.16s-.034-1.39-2.703-2.387C76.555 21.71 51.376 13.4.629.1"/>
    </defs>
    <g fill="none" fill-rule="evenodd">
        <path fill="#6D1F37" d="M340.146 226.602c34.388-8.53 87.25-46.091 111.247-63.105 1.848-1.31 1.034-3.35 1.034-3.35l.593-.294c.434-.308 5.3-15.158 3.132-36.215-1.42-13.785-7.028-21.892-8.68-23.78-.268-.306-.79-.16-.79-.16s-.035-1.394-2.706-2.393c-34.423-12.863-59.62-21.188-110.407-34.517"/>
        <g opacity=".132">
            <g transform="translate(332.78 62.788)">
                <mask id="b" fill="#fff">
                    <use xlink:href="#a"/>
                </mask>
                <path fill="#000" d="M124.894 75.696c-7.275 1.014-11.048-.01-15.044-1.096-3.966-1.078-8.07-2.192-15.652-1.135-7.581 1.057-11.176 3.244-14.65 5.359-3.501 2.13-6.808 4.143-14.082 5.156-7.275 1.013-11.047-.012-15.041-1.098-3.966-1.078-8.067-2.192-15.648-1.136-7.582 1.057-11.175 3.244-14.651 5.36-3.501 2.13-6.807 4.142-14.082 5.155C-1.23 93.275-5 92.25-8.996 91.165c-2.914-.793-5.906-1.6-10.294-1.557-.004.458-.012.918-.018 1.376 4.165-.05 6.983.71 9.914 1.507 3.966 1.078 8.066 2.193 15.65 1.136 7.582-1.056 11.175-3.244 14.65-5.358 3.5-2.131 6.807-4.144 14.08-5.157 7.274-1.013 11.047.013 15.04 1.098 3.967 1.077 8.068 2.193 15.65 1.136 7.582-1.058 11.177-3.244 14.652-5.36 3.5-2.13 6.807-4.142 14.08-5.155 7.276-1.015 11.048.01 15.044 1.096 3.967 1.079 8.067 2.192 15.65 1.135 7.585-1.057 11.18-3.244 14.655-5.359 3.062-1.863 5.976-3.635 11.524-4.728-.043-.466-.086-.928-.133-1.38-5.93 1.152-9.1 3.076-12.171 4.944-3.5 2.132-6.808 4.144-14.083 5.157" mask="url(#b)"/>
            </g>
            <g transform="translate(332.78 62.788)">
                <mask id="d" fill="#fff">
                    <use xlink:href="#c"/>
                </mask>
                <path fill="#000" d="M124.894 87.933c-7.275 1.014-11.048-.01-15.044-1.097-3.966-1.077-8.07-2.192-15.652-1.135-7.581 1.057-11.176 3.244-14.65 5.36-3.501 2.13-6.808 4.142-14.082 5.155-7.275 1.014-11.047-.011-15.041-1.097-3.966-1.078-8.067-2.192-15.648-1.137-7.582 1.057-11.175 3.244-14.651 5.36-3.501 2.13-6.807 4.142-14.082 5.156C-1.23 105.51-5 104.486-8.996 103.4c-2.914-.793-5.906-1.6-10.294-1.556-.004.457-.012.917-.018 1.376 4.165-.05 6.983.711 9.914 1.508 3.966 1.077 8.066 2.192 15.65 1.135 7.582-1.056 11.175-3.244 14.65-5.358 3.5-2.132 6.807-4.143 14.08-5.157 7.274-1.014 11.047.012 15.04 1.097 3.967 1.077 8.068 2.193 15.65 1.136 7.582-1.057 11.177-3.244 14.652-5.359 3.5-2.13 6.807-4.143 14.08-5.156 7.276-1.013 11.048.01 15.044 1.097 3.967 1.078 8.067 2.192 15.65 1.136 7.585-1.058 11.18-3.245 14.655-5.36 3.062-1.863 5.976-3.636 11.524-4.729-.043-.466-.086-.928-.133-1.38-5.93 1.152-9.1 3.076-12.171 4.946-3.5 2.13-6.808 4.142-14.083 5.156" mask="url(#d)"/>
            </g>
            <g transform="translate(332.78 62)">
                <mask id="f" fill="#fff">
                    <use xlink:href="#e"/>
                </mask>
                <path fill="#000" d="M124.894 100.642c-7.275 1.014-11.048-.011-15.044-1.096-3.966-1.077-8.07-2.193-15.652-1.136-7.581 1.057-11.176 3.244-14.65 5.36-3.501 2.13-6.808 4.142-14.082 5.155-7.275 1.014-11.047-.012-15.041-1.096-3.966-1.079-8.067-2.193-15.648-1.138-7.582 1.057-11.175 3.244-14.651 5.36-3.501 2.13-6.807 4.142-14.082 5.156-7.274 1.013-11.045-.012-15.04-1.096-2.914-.793-5.906-1.601-10.294-1.557-.004.458-.012.917-.018 1.376 4.165-.05 6.983.711 9.914 1.508 3.966 1.077 8.066 2.192 15.65 1.135 7.582-1.056 11.175-3.244 14.65-5.357 3.5-2.132 6.807-4.144 14.08-5.158 7.274-1.014 11.047.012 15.04 1.098 3.967 1.078 8.068 2.192 15.65 1.135 7.582-1.058 11.177-3.244 14.652-5.359 3.5-2.13 6.807-4.143 14.08-5.156 7.276-1.013 11.048.012 15.044 1.097 3.967 1.078 8.067 2.193 15.65 1.136 7.585-1.057 11.18-3.244 14.655-5.36 3.062-1.863 5.976-3.636 11.524-4.729-.043-.465-.086-.928-.133-1.38-5.93 1.152-9.1 3.077-12.171 4.946-3.5 2.13-6.808 4.142-14.083 5.156" mask="url(#f)"/>
            </g>
            <g transform="translate(332.78 62.788)">
                <mask id="h" fill="#fff">
                    <use xlink:href="#g"/>
                </mask>
                <path fill="#000" d="M124.894 112.406c-7.275 1.014-11.048-.011-15.044-1.096-3.966-1.077-8.07-2.192-15.652-1.136-7.581 1.057-11.176 3.244-14.65 5.36-3.501 2.13-6.808 4.142-14.082 5.155-7.275 1.013-11.047-.012-15.041-1.097-3.966-1.078-8.067-2.192-15.648-1.137-7.582 1.058-11.175 3.245-14.651 5.36-3.501 2.13-6.807 4.143-14.082 5.155-7.274 1.015-11.045-.01-15.04-1.095-2.914-.793-5.906-1.601-10.294-1.557-.004.458-.012.917-.018 1.376 4.165-.05 6.983.711 9.914 1.507 3.966 1.078 8.066 2.194 15.65 1.135 7.582-1.056 11.175-3.244 14.65-5.357 3.5-2.13 6.807-4.144 14.08-5.157 7.274-1.014 11.047.012 15.04 1.098 3.967 1.077 8.068 2.192 15.65 1.135 7.582-1.057 11.177-3.244 14.652-5.36 3.5-2.13 6.807-4.14 14.08-5.155 7.276-1.014 11.048.011 15.044 1.096 3.967 1.08 8.067 2.194 15.65 1.137 7.585-1.058 11.18-3.245 14.655-5.36 3.062-1.864 5.976-3.636 11.524-4.728-.043-.467-.086-.928-.133-1.38-5.93 1.152-9.1 3.076-12.171 4.944-3.5 2.132-6.808 4.144-14.083 5.157" mask="url(#h)"/>
            </g>
            <g transform="translate(331.99 62.788)">
                <mask id="j" fill="#fff">
                    <use xlink:href="#i"/>
                </mask>
                <path fill="#000" d="M125.683 124.643c-7.275 1.013-11.047-.012-15.044-1.097-3.966-1.077-8.069-2.192-15.652-1.136-7.58 1.058-11.175 3.244-14.65 5.36-3.5 2.13-6.807 4.143-14.081 5.155-7.275 1.015-11.048-.01-15.042-1.096-3.966-1.079-8.067-2.192-15.648-1.136-7.582 1.057-11.175 3.243-14.651 5.359-3.5 2.13-6.806 4.143-14.081 5.155-7.274 1.014-11.046-.01-15.04-1.096-2.915-.793-5.907-1.6-10.294-1.556-.005.457-.012.917-.019 1.376 4.165-.05 6.983.71 9.915 1.507 3.965 1.077 8.066 2.193 15.649 1.136 7.582-1.057 11.175-3.245 14.651-5.358 3.5-2.132 6.806-4.144 14.08-5.157 7.273-1.015 11.047.011 15.04 1.097 3.966 1.078 8.068 2.194 15.649 1.135 7.583-1.057 11.177-3.244 14.652-5.358 3.5-2.13 6.807-4.143 14.08-5.157 7.276-1.013 11.049.012 15.045 1.098 3.966 1.078 8.067 2.192 15.65 1.135 7.584-1.057 11.178-3.244 14.654-5.36 3.062-1.862 5.976-3.635 11.524-4.728-.042-.466-.086-.928-.133-1.38-5.93 1.152-9.099 3.076-12.17 4.945-3.501 2.131-6.809 4.144-14.084 5.157" mask="url(#j)"/>
            </g>
            <g transform="translate(333.57 62.788)">
                <mask id="l" fill="#fff">
                    <use xlink:href="#k"/>
                </mask>
                <path fill="#000" d="M124.104 136.88c-7.275 1.013-11.047-.012-15.043-1.097-3.967-1.078-8.07-2.192-15.653-1.136-7.58 1.058-11.175 3.243-14.65 5.36-3.5 2.13-6.807 4.143-14.081 5.155-7.275 1.014-11.047-.01-15.041-1.097-3.967-1.077-8.067-2.191-15.648-1.136-7.583 1.057-11.176 3.244-14.652 5.36-3.5 2.13-6.806 4.142-14.08 5.154-7.275 1.015-11.046-.01-15.041-1.095-2.915-.793-5.907-1.6-10.294-1.557-.004.458-.012.917-.018 1.377 4.164-.051 6.983.71 9.914 1.506 3.965 1.079 8.066 2.193 15.65 1.136 7.581-1.056 11.174-3.244 14.65-5.358 3.5-2.131 6.807-4.143 14.08-5.157 7.273-1.014 11.047.012 15.04 1.098 3.966 1.077 8.068 2.193 15.649 1.136 7.583-1.058 11.177-3.245 14.652-5.36 3.5-2.13 6.807-4.142 14.08-5.156 7.277-1.014 11.049.011 15.045 1.097 3.966 1.079 8.067 2.192 15.65 1.135 7.584-1.057 11.179-3.244 14.655-5.358 3.061-1.864 5.975-3.637 11.524-4.73-.043-.465-.087-.927-.134-1.38-5.93 1.153-9.098 3.077-12.17 4.946-3.501 2.13-6.809 4.143-14.084 5.156" mask="url(#l)"/>
            </g>
            <g transform="translate(333.57 62.788)">
                <mask id="n" fill="#fff">
                    <use xlink:href="#m"/>
                </mask>
                <path fill="#000" d="M124.104 149.116c-7.275 1.013-11.047-.012-15.043-1.096-3.967-1.077-8.07-2.193-15.653-1.137-7.58 1.058-11.175 3.245-14.65 5.36-3.5 2.13-6.807 4.143-14.081 5.155-7.275 1.014-11.047-.01-15.041-1.097-3.967-1.077-8.067-2.19-15.648-1.136-7.583 1.057-11.176 3.244-14.652 5.36-3.5 2.13-6.806 4.142-14.08 5.156-7.275 1.013-11.046-.012-15.041-1.097-2.915-.793-5.907-1.6-10.294-1.556-.004.457-.012.917-.018 1.376 4.164-.05 6.983.711 9.914 1.507 3.965 1.078 8.066 2.193 15.65 1.136 7.581-1.056 11.174-3.244 14.65-5.359 3.5-2.13 6.807-4.142 14.08-5.157 7.273-1.014 11.047.013 15.04 1.098 3.966 1.078 8.068 2.193 15.649 1.136 7.583-1.058 11.177-3.244 14.652-5.359 3.5-2.13 6.807-4.143 14.08-5.156 7.277-1.014 11.049.01 15.045 1.097 3.966 1.078 8.067 2.192 15.65 1.135 7.584-1.057 11.179-3.244 14.655-5.358 3.061-1.865 5.975-3.637 11.524-4.73-.043-.466-.087-.928-.134-1.38-5.93 1.152-9.098 3.077-12.17 4.946-3.501 2.13-6.809 4.142-14.084 5.156" mask="url(#n)"/>
            </g>
            <g transform="translate(333.57 62.788)">
                <mask id="p" fill="#fff">
                    <use xlink:href="#o"/>
                </mask>
                <path fill="#000" d="M124.104 63.46c-7.275 1.014-11.047-.011-15.043-1.096-3.967-1.079-8.07-2.193-15.653-1.136-7.58 1.057-11.175 3.244-14.65 5.359-3.5 2.13-6.807 4.143-14.081 5.156-7.275 1.013-11.047-.012-15.041-1.098-3.967-1.077-8.067-2.19-15.648-1.136-7.583 1.058-11.176 3.245-14.652 5.36-3.5 2.13-6.806 4.142-14.08 5.155-7.275 1.015-11.046-.01-15.041-1.096-2.915-.792-5.907-1.6-10.294-1.556-.004.458-.012.918-.018 1.376 4.164-.051 6.983.71 9.914 1.507 3.965 1.078 8.066 2.192 15.65 1.135 7.581-1.056 11.174-3.244 14.65-5.358 3.5-2.131 6.807-4.143 14.08-5.156 7.273-1.014 11.047.012 15.04 1.097 3.966 1.078 8.068 2.193 15.649 1.136 7.583-1.057 11.177-3.244 14.652-5.36 3.5-2.13 6.807-4.142 14.08-5.155 7.277-1.014 11.049.011 15.045 1.096 3.966 1.079 8.067 2.193 15.65 1.136 7.584-1.057 11.179-3.245 14.655-5.359 3.061-1.864 5.975-3.636 11.524-4.73-.043-.465-.087-.927-.134-1.38-5.93 1.153-9.098 3.077-12.17 4.946-3.501 2.13-6.809 4.143-14.084 5.156" mask="url(#p)"/>
            </g>
            <g transform="translate(333.57 62.788)">
                <mask id="r" fill="#fff">
                    <use xlink:href="#q"/>
                </mask>
                <path fill="#000" d="M124.104 51.223c-7.275 1.014-11.047-.01-15.043-1.097-3.967-1.077-8.07-2.192-15.653-1.135-7.58 1.057-11.175 3.244-14.65 5.36-3.5 2.13-6.807 4.142-14.081 5.156-7.275 1.013-11.047-.012-15.041-1.098-3.967-1.079-8.067-2.192-15.648-1.136-7.583 1.057-11.176 3.244-14.652 5.359-3.5 2.13-6.806 4.143-14.08 5.156-7.275 1.013-11.046-.012-15.041-1.097-2.915-.792-5.907-1.6-10.294-1.556-.004.459-.012.917-.018 1.377 4.164-.051 6.983.71 9.914 1.506 3.965 1.078 8.066 2.193 15.65 1.136 7.581-1.056 11.174-3.244 14.65-5.358 3.5-2.131 6.807-4.143 14.08-5.156 7.273-1.015 11.047.012 15.04 1.096 3.966 1.078 8.068 2.194 15.649 1.137 7.583-1.059 11.177-3.244 14.652-5.36 3.5-2.13 6.807-4.142 14.08-5.156 7.277-1.014 11.049.011 15.045 1.097 3.966 1.078 8.067 2.192 15.65 1.135 7.584-1.057 11.179-3.244 14.655-5.358 3.061-1.864 5.975-3.636 11.524-4.73-.043-.466-.087-.927-.134-1.38-5.93 1.153-9.098 3.077-12.17 4.946-3.501 2.13-6.809 4.143-14.084 5.156" mask="url(#r)"/>
            </g>
            <g transform="translate(333.57 62.788)">
                <mask id="t" fill="#fff">
                    <use xlink:href="#s"/>
                </mask>
                <path fill="#000" d="M124.104 38.986c-7.275 1.015-11.047-.01-15.043-1.095-3.967-1.078-8.07-2.194-15.653-1.136-7.58 1.058-11.175 3.243-14.65 5.359-3.5 2.13-6.807 4.143-14.081 5.156-7.275 1.013-11.047-.01-15.041-1.098-3.967-1.077-8.067-2.191-15.648-1.135-7.583 1.057-11.176 3.244-14.652 5.358-3.5 2.13-6.806 4.143-14.08 5.156-7.275 1.015-11.046-.01-15.041-1.096-2.915-.792-5.907-1.6-10.294-1.557-.004.459-.012.918-.018 1.377 4.164-.051 6.983.71 9.914 1.507 3.965 1.077 8.066 2.192 15.65 1.135 7.581-1.056 11.174-3.244 14.65-5.358 3.5-2.131 6.807-4.143 14.08-5.156 7.273-1.014 11.047.012 15.04 1.098 3.966 1.077 8.068 2.192 15.649 1.135 7.583-1.057 11.177-3.244 14.652-5.36 3.5-2.13 6.807-4.142 14.08-5.156 7.277-1.013 11.049.012 15.045 1.097 3.966 1.079 8.067 2.193 15.65 1.136 7.584-1.057 11.179-3.244 14.655-5.359 3.061-1.863 5.975-3.636 11.524-4.73-.043-.464-.087-.927-.134-1.38-5.93 1.153-9.098 3.078-12.17 4.946-3.501 2.13-6.809 4.143-14.084 5.156" mask="url(#t)"/>
            </g>
            <g transform="translate(333.57 62.788)">
                <mask id="v" fill="#fff">
                    <use xlink:href="#u"/>
                </mask>
                <path fill="#000" d="M124.104 26.75c-7.275 1.014-11.047-.01-15.043-1.096-3.967-1.078-8.07-2.193-15.653-1.136-7.58 1.057-11.175 3.244-14.65 5.36-3.5 2.13-6.807 4.142-14.081 5.155-7.275 1.014-11.047-.011-15.041-1.097-3.967-1.078-8.067-2.191-15.648-1.137-7.583 1.058-11.176 3.245-14.652 5.36-3.5 2.13-6.806 4.142-14.08 5.156-7.275 1.013-11.046-.01-15.041-1.097-2.915-.792-5.907-1.6-10.294-1.556-.004.458-.012.917-.018 1.377 4.164-.052 6.983.71 9.914 1.507 3.965 1.077 8.066 2.192 15.65 1.135 7.581-1.056 11.174-3.244 14.65-5.358 3.5-2.132 6.807-4.143 14.08-5.156 7.273-1.015 11.047.011 15.04 1.096 3.966 1.078 8.068 2.193 15.649 1.136 7.583-1.057 11.177-3.244 14.652-5.359 3.5-2.13 6.807-4.143 14.08-5.156 7.277-1.013 11.049.01 15.045 1.097 3.966 1.078 8.067 2.192 15.65 1.136 7.584-1.058 11.179-3.245 14.655-5.36 3.061-1.863 5.975-3.636 11.524-4.729-.043-.466-.087-.928-.134-1.38-5.93 1.152-9.098 3.076-12.17 4.946-3.501 2.13-6.809 4.143-14.084 5.156" mask="url(#v)"/>
            </g>
            <g transform="translate(333.57 62.788)">
                <mask id="x" fill="#fff">
                    <use xlink:href="#w"/>
                </mask>
                <path fill="#000" d="M124.104 14.513c-7.275 1.015-11.047-.01-15.043-1.096-3.967-1.078-8.07-2.192-15.653-1.135-7.58 1.057-11.175 3.244-14.65 5.359-3.5 2.13-6.807 4.143-14.081 5.156-7.275 1.013-11.047-.012-15.041-1.098-3.967-1.078-8.067-2.192-15.648-1.136-7.583 1.057-11.176 3.244-14.652 5.36-3.5 2.13-6.806 4.142-14.08 5.155-7.275 1.014-11.046-.011-15.041-1.096-2.915-.792-5.907-1.6-10.294-1.556-.004.458-.012.917-.018 1.376 4.164-.051 6.983.71 9.914 1.506 3.965 1.078 8.066 2.193 15.65 1.136 7.581-1.056 11.174-3.244 14.65-5.358 3.5-2.131 6.807-4.143 14.08-5.156 7.273-1.014 11.047.012 15.04 1.097 3.966 1.077 8.068 2.193 15.649 1.136 7.583-1.058 11.177-3.244 14.652-5.36 3.5-2.13 6.807-4.142 14.08-5.155 7.277-1.015 11.049.01 15.045 1.096 3.966 1.079 8.067 2.193 15.65 1.135 7.584-1.057 11.179-3.243 14.655-5.358 3.061-1.864 5.975-3.636 11.524-4.73-.043-.465-.087-.927-.134-1.38-5.93 1.153-9.098 3.077-12.17 4.946-3.501 2.13-6.809 4.143-14.084 5.156" mask="url(#x)"/>
            </g>
            <g transform="translate(333.57 62.788)">
                <mask id="z" fill="#fff">
                    <use xlink:href="#y"/>
                </mask>
                <path fill="#000" d="M124.104 2.277c-7.275 1.014-11.047-.011-15.043-1.096-3.967-1.077-8.07-2.193-15.653-1.136-7.58 1.057-11.175 3.244-14.65 5.36-3.5 2.13-6.807 4.142-14.081 5.155-7.275 1.013-11.047-.01-15.041-1.098-3.967-1.077-8.067-2.19-15.648-1.135-7.583 1.057-11.176 3.244-14.652 5.358-3.5 2.13-6.806 4.143-14.08 5.157-7.275 1.014-11.046-.011-15.041-1.097-2.915-.792-5.907-1.6-10.294-1.556-.004.458-.012.918-.018 1.376 4.164-.05 6.983.711 9.914 1.507 3.965 1.078 8.066 2.193 15.65 1.136 7.581-1.056 11.174-3.244 14.65-5.359 3.5-2.13 6.807-4.142 14.08-5.156 7.273-1.014 11.047.012 15.04 1.097 3.966 1.078 8.068 2.193 15.649 1.136 7.583-1.057 11.177-3.244 14.652-5.359 3.5-2.13 6.807-4.143 14.08-5.156 7.277-1.013 11.049.012 15.045 1.097 3.966 1.078 8.067 2.192 15.65 1.136 7.584-1.057 11.179-3.244 14.655-5.36 3.061-1.864 5.975-3.636 11.524-4.73-.043-.464-.087-.927-.134-1.379-5.93 1.152-9.098 3.077-12.17 4.946-3.501 2.13-6.809 4.142-14.084 5.156" mask="url(#z)"/>
            </g>
            <g transform="translate(333.57 62.788)">
                <mask id="B" fill="#fff">
                    <use xlink:href="#A"/>
                </mask>
                <path fill="#000" d="M124.104-9.96c-7.275 1.015-11.047-.01-15.043-1.096-3.967-1.078-8.07-2.193-15.653-1.136-7.58 1.058-11.175 3.244-14.65 5.36-3.5 2.13-6.807 4.142-14.081 5.156-7.275 1.013-11.047-.012-15.041-1.098-3.967-1.077-8.067-2.191-15.648-1.136-7.583 1.057-11.176 3.245-14.652 5.359-3.5 2.13-6.806 4.143-14.08 5.156C-2.02 7.618-5.79 6.595-9.786 5.508c-2.915-.792-5.907-1.6-10.294-1.556-.004.459-.012.917-.018 1.377 4.164-.051 6.983.71 9.914 1.506 3.965 1.078 8.066 2.193 15.65 1.136 7.581-1.056 11.174-3.244 14.65-5.358 3.5-2.131 6.807-4.143 14.08-5.156 7.273-1.014 11.047.012 15.04 1.097C53.203-.37 57.305.747 64.886-.31c7.583-1.057 11.177-3.244 14.652-5.36 3.5-2.13 6.807-4.142 14.08-5.156 7.277-1.013 11.049.011 15.045 1.097 3.966 1.079 8.067 2.192 15.65 1.136 7.584-1.058 11.179-3.245 14.655-5.359 3.061-1.864 5.975-3.636 11.524-4.73-.043-.466-.087-.927-.134-1.38-5.93 1.153-9.098 3.077-12.17 4.946-3.501 2.13-6.809 4.143-14.084 5.156" mask="url(#B)"/>
            </g>
        </g>
        <path fill="#C4C4C4" d="M326.808 62.002c40.359 0 73.077 37.163 73.077 83.007 0 45.842-32.718 83.006-73.077 83.006-40.359 0-73.077-37.164-73.077-83.006 0-45.844 32.718-83.007 73.077-83.007"/>
        <g fill="#FFF">
            <path d="M428.08 135.967c-1.189.357-2.705-.84-3.316-2.848-.588-1.933-.04-3.798 1.21-4.152 1.25-.355 2.731.923 3.311 2.857.594 1.975.012 3.81-1.205 4.143m-3.294-11.262c-2.72.772-3.971 4.824-2.667 9.165 1.285 4.279 4.564 7.109 7.323 6.324 2.76-.785 3.95-4.886 2.666-9.167-1.294-4.312-4.587-7.099-7.322-6.322M446.319 128.085l-.552-3.08.006-.013c.06-.032.061-.03.109.07l1.286 2.695c.01.021.02.043.028.064-.026.026-.82.267-.877.264m-.273-5.085l-1.609.479 1.096 8.183 1.355-.403-.247-1.387 1.346-.4.609 1.277c.107-.013 1.324-.384 1.354-.411L446.046 123"/>
            <path d="M424.228 139.307c-.494 1.014-1.135 1.86-1.935 2.534-1.31 1.1-2.807 1.627-4.48 1.571-3.27-.109-6.412-2.685-7.594-6.61-1.16-3.857-.104-7.897 2.611-10.03 2.57-2.02 5.9-1.742 8.226-.002l-1.985 4.145c-.96-.636-1.949-.796-2.948-.408-.87.34-1.493 1.013-1.868 1.988-.716 1.861-.047 4.168 1.533 5.319 1.606 1.17 3.723.785 4.731-1.177l3.71 2.67M438.708 136.208c-.168.658-.432 1.224-.793 1.69-.043.054-.087.072-.15.062-.967-.15-1.935-.297-2.903-.443l-.095-.018.085-.1c.289-.335.522-.737.677-1.223.397-1.246.284-2.502-.331-3.757a7.173 7.173 0 0 0-.605-.993c-.23-.325-.464-.646-.692-.974-.304-.435-.58-.9-.795-1.427-.59-1.442-.656-3.202-.096-4.5.125-.286.276-.539.455-.758a.218.218 0 0 1 .123-.08l2.954-.684a.112.112 0 0 1 .077.009l-.062.076c-.342.4-.61.886-.784 1.475a4.852 4.852 0 0 0-.16 1.918c.065.593.232 1.149.47 1.674.186.406.41.775.653 1.119.215.304.435.6.653.9.297.409.585.829.816 1.31.749 1.557.908 3.136.503 4.724M442.61 123l.668 2.37-1.592.386.029.124 1.935 6.847c-.05.033-1.987.507-2.085.51l-1.969-6.972-1.571.38a65.894 65.894 0 0 1-.675-2.37c.049-.032 5.18-1.277 5.26-1.275M432.795 146.451c-.557.214-1.258-.3-1.568-1.147-.31-.847-.11-1.706.445-1.921.554-.216 1.258.302 1.568 1.15.31.85.112 1.705-.445 1.918m-1.487-4.201c-.972.328-1.361 1.789-.832 3.292.522 1.483 1.728 2.387 2.695 2.05.946-.33 1.353-1.788.808-3.31-.526-1.461-1.713-2.354-2.67-2.032M444.735 142.187l.342.796-2.34.754-1.714-4.013 2.277-.734.338.791-1.56.503c.017.087.27.687.338.804.093-.014.177-.052.267-.08.087-.025.174-.055.261-.083l.803-.258.336.789c-.026.01-.053.024-.082.032-.383.125-.767.25-1.152.373l-.085.028c.019.094.289.727.349.821l1.622-.523zM448.072 141.03l.317.742-2.178.702-1.597-3.737 2.12-.684.316.737-1.452.468c.015.082.25.64.314.75.086-.014.164-.05.249-.075.08-.024.162-.052.243-.078l.748-.24.312.734c-.024.01-.05.023-.076.03-.357.117-.714.233-1.073.348l-.08.026c.018.088.27.677.326.765l1.51-.488zM430.262 147.452c-.205.85-1.013 1.879-2.255 2.029-1.285.156-2.515-.645-3.018-1.948-.516-1.337-.178-2.849.826-3.701.997-.848 2.313-.769 3.122-.197l-.505 1.163c-.517-.326-1.05-.374-1.583-.102-.391.2-.66.536-.81.987-.3.908.113 1.932.928 2.339.775.387 1.91.077 2.242-1.163l1.053.593M435.388 142.438l.305.93c.43-.136.855-.286 1.281-.425.045.082.267.743.306.912-.026.01-.053.024-.08.034l-1.119.375-.092.03.615 1.877-.684.229-1.52-4.639c.042-.039 2.138-.75 2.248-.761l.299.916-1.559.522zM438.804 141.325c.016.093.253.745.325.895.102-.025.204-.06.308-.089.106-.03.212-.063.32-.094l.632-.19.325.877c-.028.011-.055.023-.081.03-.365.11-.73.217-1.094.326l-.09.027.664 1.795-.67.198-1.643-4.44c.038-.036 2.07-.65 2.194-.66l.325.875-1.515.45z"/>
        </g>
        <g fill="#B51144">
            <path d="M282.447 194.42c-24.129 4.235-26.543.03-48.538-.88-12.449-.516-19.235 12.316-33.388 11.132-14.153-1.184-40.204-4.083-52.767-4.083-12.562 0-30.873 5.53-41.842 10.18-21.541 9.135-44.351 4.943-56.829 4.943-13.625 0-40.594 6.27-47.772 12.671-7.177 6.4 33.384 4.5 51.612 4.5s40.291 7.014 50.899 13.115c10.607 6.102 52.186 10.44 68.213 11.504 16.027 1.064 64.423.782 80.45-2.41 16.027-3.193 25.643-11.479 38.465-11.479 7.889 0 22.764 6.492 36.531 6.902 8.608.256 28.997-4.002 41.013-4.517 15.352-.657 35.851.302 44.3-2.385 15.29-4.863 47.777-8.761 46.393-10.73-2.484-3.534-53.172-2.999-75.463-5.908 14.781-10.34-16.3-9.765-12.108-14.597 6.628-7.641 7.826-8.995 11.282-13.73 2.525-3.011 6.294-7.794 6.878-12.172-1.681-6.763-29.817-11.984-46.899-12.624-17.08-.64-36.301 16.334-60.43 20.569z"/>
            <path d="M472.12 206.166c-24.128 4.235-19.618 8.712-40.275 12.85-20.656 4.137-37.828 9.109-44.328 2.193-6.499-6.916-25.24 8.128-10.066 8.128-21.805 5.952 13.976 18.178 30.003 19.242 16.026 1.064 33.971-7.146 62.107-7.146 28.136 0 52.406-9.229 65.227-9.229 12.822 0 63.534-4.18 53.385-10.995-11.28-7.576-19.4-4.486-21.925-9.797-2.525-5.31-19.488-7.08-36.569-7.72-17.08-.64-33.43-1.76-57.558 2.474z"/>
        </g>
        <path fill="#B51144" d="M233.098 226.39c-6.501-2.16-9.39-1.44-16.614 0-7.223 1.441-7.223 5.043-20.225 5.043-13.003 0-5.78-2.161-21.67-3.602-15.892-1.44-39.007 1.44-42.619 2.161-3.611.72 14.447 19.45 23.115 19.45s56.343-3.57 67.178-9.365c10.835-5.795 17.336-11.525 10.835-13.686zM536.416 210.899c-3.99-1.325-5.763-.883-10.195 0-4.433.883-4.433 3.09-12.411 3.09-7.979 0-3.546-1.324-13.298-2.207-9.751-.883-23.935.883-26.152 1.324-2.216.442 8.865 11.92 14.184 11.92 5.32 0 39.814-2.036 46.463-5.588 6.649-3.551 5.398-7.215 1.409-8.54z"/>
        <g>
            <path fill="#AB0E3E" d="M527.096 145.07L561 140.72v-2.65l-29.793-3.245z"/>
            <path fill="#960F39" d="M506.39 4l-84.948 134.538v36.693h80.903V216h32.362v-40.77H561v-36.692h-26.293V8.077z"/>
            <path fill="#B51144" d="M477.573 16.174L397 137.988v32.484l24.634 4.683-.136-36.573 84.898-134.58z"/>
            <path fill="#6D0022" d="M474.27 175.019v36.779l28.212 4.17v-40.95h-28.213zm-17.347-.789h15.941-15.94zM504.23 56.015v81.175h-48.884z"/>
            <path fill="#FFF" d="M484.756 88.342l-.83 40.178H460.56z"/>
        </g>
        <g>
            <path fill="#B51144" d="M219.6 156.14l36.4-4.353v-2.651l-31.987-3.247z"/>
            <path fill="#960F39" d="M195.31 0l-94.406 149.135v40.673h89.91V235h35.965v-45.192H256v-40.673h-29.22V4.519z"/>
            <path fill="#B51144" d="M163.582 13.475L74 148.218v35.933l26.911 5.652v-40.675L195.312.001z"/>
            <path fill="#6D0022" d="M160.396 189.262v41.164L191.113 235v-45.738h-30.717zm-17.553 0h17.553-17.553zM189.53 59.144v90.688h-53.017z"/>
            <path fill="#FFF" d="M168.704 94.63l-1.035 50.996h-28.782z"/>
        </g>
    </g>
</svg>
