<?xml version="1.0" encoding="UTF-8"?>
<svg width="17px" height="24px" viewBox="0 0 17 24" version="1.1" xmlns="http://www.w3.org/2000/svg" xmlns:xlink="http://www.w3.org/1999/xlink">
    <title>EB6700E6-0360-44E3-82D3-AB39EF7CB2FA</title>
    <g id="Page-1" stroke="none" stroke-width="1" fill="none" fill-rule="evenodd">
        <g id="templates-/-desktop-/-store_finder-/-map_list_view-/-open-/-store_list-/-location_not_shared-/-default" transform="translate(-20.000000, -702.000000)" fill="#CE4B27">
            <g id="List-View" transform="translate(0.000000, 192.000000)">
                <g id="molecules-/-de_la_po-/-store_finder_list_view-/-location_not_shared-/-store-/-services-/-small-/-selected" transform="translate(0.000000, 399.000000)">
                    <g id="Services" transform="translate(20.000000, 107.000000)">
                        <g id="atoms-/-de_la_po-/-icons-/-mobile-/-orange" transform="translate(0.000000, 4.000000)">
                            <path d="M14.6,0 C15.9254834,9.33778401e-16 17,1.0745166 17,2.4 L17,21.6 C17,22.9254834 15.9254834,24 14.6,24 L2.4,24 C1.0745166,24 -2.8176431e-16,22.9254834 0,21.6 L0,2.4 C-1.623249e-16,1.0745166 1.0745166,-2.00601859e-16 2.4,0 L14.6,0 Z M13.5,2.25 L3.75,2.25 C2.92157288,2.25 2.25,2.92157288 2.25,3.75 L2.25,3.75 L2.25,20.25 C2.25,21.0784271 2.92157288,21.75 3.75,21.75 L3.75,21.75 L13.5,21.75 C14.3284271,21.75 15,21.0784271 15,20.25 L15,20.25 L15,3.75 C15,2.92157288 14.3284271,2.25 13.5,2.25 L13.5,2.25 Z" id="Combined-Shape"></path>
                            <path d="M3.75,2.25 L13.5,2.25 L12.6816221,4.13856446 C12.5865376,4.3579902 12.3702303,4.5 12.1310887,4.5 L5.11891131,4.5 C4.87976969,4.5 4.66346242,4.3579902 4.56837793,4.13856446 L3.75,2.25 L3.75,2.25 Z" id="Rectangle"></path>
                            <circle id="Oval" cx="9" cy="18" r="2.25"></circle>
                        </g>
                    </g>
                </g>
            </g>
        </g>
    </g>
</svg>