<svg xmlns="http://www.w3.org/2000/svg" xmlns:xlink="http://www.w3.org/1999/xlink" width="45" height="52" viewBox="0 0 61 71">
    <defs>
        <path id="a" d="M0 0h72v89H0z"/>
        <path id="c" d="M0 .462h18.756v3.203H0z"/>
        <path id="e" d="M.884.023h18.883V4.62H.884z"/>
    </defs>
    <g fill="none" fill-rule="evenodd">
        <g transform="translate(-7 -8.766)">
            <mask id="b" fill="#fff">
                <use xlink:href="#a"/>
            </mask>
            <path fill="#CF1D1A" stroke="#FFF" stroke-width="2" d="M37.348 10.304C21.14 10.304 8 23.444 8 39.652 8 55.86 30.22 78.23 37.348 78.23c7.13 0 29.348-22.369 29.348-38.578 0-16.208-13.139-29.348-29.348-29.348" mask="url(#b)"/>
        </g>
        <path fill="#FEFEFE" d="M37.404 44H25.596c-.57 0-1.052-.457-1.128-1.07l-2.464-14.47a.399.399 0 0 1 .393-.46h18.205a.4.4 0 0 1 .394.46l-2.464 14.47c-.077.613-.559 1.07-1.128 1.07M42.203 26H20.797a.797.797 0 0 1-.797-.797v-1.405c0-.441.357-.798.797-.798h21.406c.44 0 .797.357.797.798v1.405c0 .44-.357.797-.797.797"/>
        <path fill="#FEFEFE" d="M27.217 40H16.782a.79.79 0 0 1-.782-.797v-1.406c0-.44.35-.797.782-.797h10.435a.79.79 0 0 1 .783.797v1.406a.79.79 0 0 1-.783.797"/>
        <g transform="translate(13 31)">
            <mask id="d" fill="#fff">
                <use xlink:href="#c"/>
            </mask>
            <path fill="#FEFEFE" d="M17.946 3.665H.811c-.449 0-.812-.381-.812-.85v-1.5C0 .842.362.461.811.461h17.135c.448 0 .81.381.81.852v1.5c0 .47-.362.85-.81.85" mask="url(#d)"/>
        </g>
        <g transform="translate(21 15)">
            <mask id="f" fill="#fff">
                <use xlink:href="#e"/>
            </mask>
            <path fill="#FEFEFE" d="M19.368 4.62H1.282c-.268 0-.458-.272-.381-.54L1.824.903c.151-.525.588-.88 1.08-.88h14.841c.493 0 .93.355 1.082.88l.922 3.177c.078.268-.114.54-.381.54" mask="url(#f)"/>
        </g>
    </g>
</svg>
