<?xml version="1.0" encoding="UTF-8"?>
<svg width="32px" height="24px" viewBox="0 0 32 24" version="1.1" xmlns="http://www.w3.org/2000/svg" xmlns:xlink="http://www.w3.org/1999/xlink">
    <title>E4F9952A-C8BC-4AAD-8D0D-C95D95897767</title>
    <g id="Page-1" stroke="none" stroke-width="1" fill="none" fill-rule="evenodd">
        <g id="templates-/-desktop-/-store_finder-/-map_list_view-/-open-/-store_list-/-location_not_shared-/-default" transform="translate(-184.000000, -702.000000)" fill="#CE4B27">
            <g id="List-View" transform="translate(0.000000, 192.000000)">
                <g id="molecules-/-de_la_po-/-store_finder_list_view-/-location_not_shared-/-store-/-services-/-small-/-selected" transform="translate(0.000000, 399.000000)">
                    <g id="Services" transform="translate(20.000000, 107.000000)">
                        <g id="Delivery" transform="translate(164.000000, 0.000000)">
                            <g id="atoms-/-de_la_po-/-icons-/-delivery-/-orange" transform="translate(0.000000, 4.000000)">
                                <g id="Bike-Copy" transform="translate(15.668182, 12.000000) scale(-1, 1) translate(-15.668182, -12.000000) translate(0.168182, 0.000000)">
                                    <path d="M5.55505751,23.3639184 C8.262093,23.3639184 10.4565788,21.1694325 10.4565788,18.462397 C8.262093,18.462397 8.262093,18.462397 5.55505751,18.462397 C2.84802203,18.462397 1.82849722,18.462397 0.653536178,18.462397 C0.653536178,21.1694325 2.84802203,23.3639184 5.55505751,23.3639184 Z" id="Wheel"></path>
                                    <path d="M25.665535,22.9406714 C28.3725704,22.9406714 30.5670563,20.7461855 30.5670563,18.0391501 C28.6091602,18.0391501 28.3725704,18.0391501 25.665535,18.0391501 C22.9584995,18.0391501 22.9584995,18.0391501 20.7640136,18.0391501 C20.7640136,20.7461855 22.9584995,22.9406714 25.665535,22.9406714 Z" id="Wheel" transform="translate(25.665535, 20.489911) scale(-1, 1) rotate(13.000000) translate(-25.665535, -20.489911) "></path>
                                    <g id="Bike" transform="translate(0.408460, 0.007720)">
                                        <path d="M7.30553247,10.3671669 C7.30553247,10.3671669 2.64937177,10.1971298 2.69583673,10.3671669 C2.80343502,10.7609196 2.49006953,11.3330031 1.75574026,12.0834174 C1.02694743,15.4609251 0.66255102,17.149679 0.66255102,17.149679 C0.66255102,17.149679 5.98572233,17.1004564 16.6320649,17.0020111 L18.143128,16.3681001 L19.5302968,17.8856252 L29.1640519,15.584846 L25.6729147,12.0834174 L22.9371095,11.9811428 C19.3547531,5.06240948 17.4274916,1.67186459 17.1553247,1.80950814 C16.7229835,2.02815698 16.2973369,1.65836525 16.0116364,2.09026526 C15.5477666,2.79150779 17.2641236,4.41671087 17.1553247,5.52324485 C16.6320649,10.8450334 15.4124871,14.6151521 15.4124871,14.6151521 C15.4124871,14.6151521 13.1119009,15.3945779 11.3143451,14.9302913 C10.6879482,14.7685007 11.3143451,10.594692 11.3143451,10.594692 C11.3143451,10.594692 7.30553247,10.3671669 7.30553247,10.3671669 Z" id="Path-2"></path>
                                        <path d="M19.4650849,17.2631336 C19.104578,17.2195101 19.0827662,17.0288409 19.0599742,16.8326575 C19.0415935,16.6748285 19.1457508,16.3401772 19.3025995,16.1856567 C20.1272804,15.3781311 21.0132304,14.6343252 21.8219814,13.812095 C23.1686744,12.4446931 24.6709907,12.1909168 26.2578583,13.2582231 C26.9228722,13.7051193 27.6301617,14.4299318 28.2624579,15.0206876 C28.3949216,15.144451 28.3380639,15.3650195 28.1620993,15.4077853 C26.4264706,15.830664 19.6675177,17.2876412 19.4650849,17.2631336 L19.4650849,17.2631336 Z M13.5641434,16.7223733 C9.63557403,16.705218 5.70700468,16.7272748 1.77843532,16.7321763 L1.77365634,16.7321763 C1.47993268,16.7316862 1.24294412,16.4931046 1.23105793,16.1995035 C1.16513247,14.5744041 1.60394117,13.1529629 2.65580764,11.9190049 C3.32118917,11.1407659 4.17405388,10.6775721 5.20214798,10.6580886 C6.85150991,10.6261061 8.50087184,10.6616422 10.1502338,10.6408107 C10.6894011,10.6346838 10.8830112,10.8858868 10.8830112,11.3760389 C10.8817858,12.1700854 10.8781097,12.9641318 10.8830112,13.7570754 C10.8915889,14.9480226 11.6770577,15.670997 12.8730289,15.6110759 C13.2161354,15.593798 13.5690449,15.6613165 13.9072499,15.6121787 C15.0970942,15.4406255 15.943832,14.8660446 16.4033496,13.6762003 C17.7451411,10.2070261 18.0245278,6.69153242 17.0405474,3.091365 C17.0148144,2.99566279 17.0086875,2.89395623 17.1091687,2.73710754 C18.8786179,5.69064176 20.6492925,8.64282806 22.3582079,11.4958811 C22.4292799,11.6143754 22.4091837,11.7662 22.3111533,11.8637403 C21.5300959,12.6405089 20.8043031,13.3790456 20.0562084,14.094055 C18.2438709,15.8266203 16.0994553,16.7335243 13.5641434,16.7223733 L13.5641434,16.7223733 Z M26.7737434,12.2166498 C26.0752766,11.666454 25.1770728,11.3748135 24.2519106,11.4679424 C23.7801392,11.5145069 23.5742753,11.3369493 23.3549322,10.9655365 C21.5217633,7.86900038 19.6640867,4.78716884 17.8284669,1.69198066 C17.5944193,1.29728565 17.3223849,1.14546103 16.8787972,1.26665114 C15.9781426,1.51307513 15.0725866,1.74209871 14.171932,1.98717478 C13.8067687,2.08532774 13.5028744,2.27758992 13.6180601,2.71394786 C13.7307951,3.14025767 14.0726762,3.18069523 14.4513187,3.08511556 C14.8777511,2.97863001 15.3041835,2.87557552 15.7355173,2.77031535 C15.7980117,2.91968921 15.8470269,3.01036736 15.8739853,3.10606956 C16.8114013,6.40099474 16.7035678,9.65560491 15.4732859,12.8599745 C14.9169633,14.3071487 14.6767887,14.4567676 13.1352603,14.4529689 C12.0557002,14.4505182 12.0507987,14.4004001 11.9944312,13.3145906 C11.9392891,12.2570874 11.8738437,11.1754911 11.7804842,10.532705 C11.6871248,9.88991879 11.542987,9.60672908 10.5079156,9.60672908 C10.2837807,9.60672908 4.84583673,9.60672908 4.34858442,9.60672908 C3.8513321,9.60672908 2.9335685,10.0538078 2.36107096,10.6015528 C1.78857343,11.1492978 1.6179105,11.3944196 1.35935525,11.7497799 C0.149904861,13.4064941 0.00285922075,15.3205382 0.0555505751,17.2751424 C0.0653536178,17.6438593 0.287147458,17.8656531 0.693973729,17.857198 C1.11672994,17.847395 1.53948616,17.8546247 1.94631243,17.8546247 C4.16584383,17.8546247 8.67965483,17.847395 11.1195096,17.847395 C13.3717587,17.882931 15.6607691,17.9797361 17.8443969,16.9490687 C18.2083348,18.0716396 18.9386615,18.4832448 19.967981,18.3594814 C20.0071932,18.425652 28.1498455,16.7321763 29.1509812,16.2371227 C29.7454132,15.9432765 29.7587699,15.1575626 29.3409152,14.7018437 C28.5358403,13.8244713 27.7050324,12.9494272 26.7737434,12.2166498 Z M1.4704564,0.0739721262 L7.27058998,0.0739721262 C7.85711434,0.0739721262 8.33258627,0.549444061 8.33258627,1.13596842 L8.33258627,5.22056953 C8.33258627,5.80709388 7.85711434,6.28256582 7.27058998,6.28256582 L1.4704564,6.28256582 C0.883932046,6.28256582 0.408460111,5.80709388 0.408460111,5.22056953 L0.408460111,1.13596842 C0.408460111,0.549444061 0.883932046,0.0739721262 1.4704564,0.0739721262 Z" id="Fill-1"></path>
                                    </g>
                                    <rect id="Rectangle" x="0" y="6.86212987" width="13.0707236" height="2.12399258" rx="1.06199629"></rect>
                                    <circle id="Light" cx="21.893462" cy="2.85922078" r="1.4704564"></circle>
                                </g>
                            </g>
                        </g>
                    </g>
                </g>
            </g>
        </g>
    </g>
</svg>