<?xml version="1.0" encoding="UTF-8"?>
<svg width="36px" height="36px" viewBox="0 0 36 36" version="1.1" xmlns="http://www.w3.org/2000/svg" xmlns:xlink="http://www.w3.org/1999/xlink">
    <title>CFF95F7F-4469-437F-8AFC-C03F44ACCB74</title>
    <g id="Symbols" stroke="none" stroke-width="1" fill="none" fill-rule="evenodd">
        <g id="atoms-/-de_la_po-/-ctas-/-store_finder-/-location-/-circle" transform="translate(-10.000000, -10.000000)" fill="#FFFFFF" fill-rule="nonzero">
            <g id="electrons-/-all_breakpoints-/-icons-/-location-/-white" transform="translate(10.000000, 10.000000)">
                <path d="M17.9641885,11.5991623 C15.4096731,11.5991623 13.1068344,13.138371 12.1299695,15.4987277 C11.1531046,17.8590844 11.6946986,20.5754975 13.5020924,22.3807332 C15.3094863,24.185969 18.0265445,24.7243172 20.3857324,23.7446329 C22.7449203,22.7649487 24.2813748,20.4602727 24.2783291,17.9057592 C24.2700205,14.4232249 21.4467302,11.6033057 17.9641885,11.5991623 Z M17.9641885,22.3426178 C15.5189251,22.3426178 13.5362613,20.3610702 13.5348755,17.9158072 C13.5334912,15.4705443 15.5139091,13.4867555 17.9591709,13.483979 C20.4044326,13.4812083 22.3893457,15.4604994 22.3935095,17.9057592 C22.394508,19.0814876 21.9284108,20.2094585 21.0977521,21.041531 C20.2670935,21.8736035 19.1399169,22.3416185 17.9641885,22.3426178 L17.9641885,22.3426178 Z" id="Shape"></path>
                <path d="M34.9331937,16.9746597 L31.2106806,16.9746597 C30.7343863,10.3674508 25.4681801,5.11812088 18.8594764,4.66303665 L18.8594764,0.942408377 C18.8594764,0.421930602 18.4375458,7.10542736e-15 17.9170681,7.10542736e-15 C17.3965903,7.10542736e-15 16.9746597,0.421930602 16.9746597,0.942408377 L16.9746597,4.67057592 C10.4028048,5.16639169 5.18566972,10.4011685 4.71204188,16.9746597 L0.942408377,16.9746597 C0.421930602,16.9746597 -2.13162821e-14,17.3965903 -2.13162821e-14,17.9170681 C-2.13162821e-14,18.4375458 0.421930602,18.8594764 0.942408377,18.8594764 L4.71204188,18.8594764 C5.19007628,25.42536 10.3992736,30.6537913 16.9633508,31.1560209 L16.9633508,34.8936126 C16.9633508,35.4140903 17.3852814,35.8360209 17.9057592,35.8360209 C18.4262369,35.8360209 18.8481675,35.4140903 18.8481675,34.8936126 L18.8481675,31.1635602 C25.4535012,30.7073504 30.7179175,25.463018 31.1993717,18.8594764 L34.9218848,18.8594764 C35.4423626,18.8594764 35.8642932,18.4375458 35.8642932,17.9170681 C35.8642932,17.3965903 35.4423626,16.9746597 34.9218848,16.9746597 L34.9331937,16.9746597 Z M17.9698429,29.3107868 C11.6741449,29.3139074 6.56794217,24.212767 6.56481813,17.917069 C6.56169695,11.621371 11.6628369,6.51516781 17.958535,6.51204326 C24.254233,6.50892156 29.3604366,11.6100611 29.3635602,17.9057592 C29.3604437,24.2010824 24.2595094,29.3045469 17.9641885,29.3107868 L17.9698429,29.3107868 Z" id="Shape"></path>
            </g>
        </g>
    </g>
</svg>