<svg xmlns="http://www.w3.org/2000/svg" xmlns:xlink="http://www.w3.org/1999/xlink" width="45" height="52" viewBox="0 0 61 71">
    <defs>
        <path id="a" d="M0 0h72v81H0z"/>
    </defs>
    <g fill="none" fill-rule="evenodd">
        <g transform="translate(-5 -5.766)">
            <mask id="b" fill="#fff">
                <use xlink:href="#a"/>
            </mask>
            <path fill="#6C1F36" stroke="#FFF" stroke-width="2" d="M35.348 7.304C19.14 7.304 6 20.444 6 36.652 6 52.86 28.22 75.23 35.348 75.23c7.13 0 29.348-22.369 29.348-38.578 0-16.208-13.139-29.348-29.348-29.348" mask="url(#b)"/>
        </g>
        <path fill="#FEFEFE" d="M34.06 27.696c-1.194 1.591-2.078 2.913-3.524 5.093-1.961 2.958-5.013 7-9.516 9.428-.528.286-.564.78-.101 1.009 2.096 1.04 7.378 1.443 13.515-1.49 7.133-3.414 11.595-11.252 10.362-15.782-1.233-4.53-6.06-5.512-6.06-5.512s-1.61-4.68-5.153-5.322c-6.246-1.131-12.024 6.095-12.386 6.609-.305.435-4.282 4.4-4.196 12.954.028 2.558-.081 3.446.617 5.158.291.716.653.9 1.41.237 3.693-3.23 5.861-6.609 8.345-10.215 1.698-2.466 2.64-3.76 4.014-5.339 2.791-3.209 5.616-2.99 5.866-2.78.378.314-1.183 3.278-3.192 5.952"/>
    </g>
</svg>
